<svg width="21" height="21" viewBox="0 0 21 21" fill="none" xmlns="http://www.w3.org/2000/svg">
<path d="M10.5002 8.61902L2.43418 0.553274C1.90952 0.0283702 1.06122 0.02837 0.536559 0.553274C0.0119009 1.07793 0.011901 1.92624 0.536559 2.4509L8.60254 10.5169L0.53656 18.5826C0.0119017 19.1075 0.0119018 19.9556 0.53656 20.4803C1.06122 21.0052 1.90952 21.0052 2.43418 20.4803L10.5002 12.4145L18.5661 20.4803C19.0908 21.0052 19.9391 21.0052 20.4638 20.4803C20.7255 20.2188 20.8569 19.875 20.8569 19.5314C20.8569 19.1879 20.7255 18.8444 20.4638 18.5826L12.3978 10.5169L20.4638 2.4509C20.7255 2.18918 20.8569 1.84564 20.8569 1.50209C20.8569 1.15854 20.7255 0.814994 20.4637 0.553277C19.9391 0.0283728 19.0908 0.0283726 18.5661 0.553277L10.5002 8.61902Z" fill="white" fill-opacity="0.3"/>
</svg>
